<?xml version="1.0" encoding="utf-8"?>
<!-- Generator: Adobe Illustrator 21.0.2, SVG Export Plug-In . SVG Version: 6.00 Build 0)  -->
<svg version="1.1" id="Layer_1" xmlns="http://www.w3.org/2000/svg" xmlns:xlink="http://www.w3.org/1999/xlink" x="0px" y="0px"
	 viewBox="0 0 378 108" style="enable-background:new 0 0 378 108;" xml:space="preserve">
<style type="text/css">
	.st0{fill:#407CCA;}
	.st1{fill:#D4EB8D;}
	.st2{fill:#77BC1F;}
</style>
<g>
	<path class="st0" d="M31.8,49v41.3H16.9V27.7l-4.9-7.9v-1.1h17.7l31.3,45.5V18.8h14.9v71.5H60.9L31.8,49z"/>
	<path class="st0" d="M168.6,38c-5.9,0-9.9,2.8-12.4,6.7v-5.7H142v51.2h14.3V61c0.3-5.6,4.1-8.4,8.9-9.9c2.5-0.8,5.9-0.5,8.6,0
		L169.9,38C169.4,38,169,38,168.6,38z"/>
	<path class="st0" d="M267,68.6c1.3,6,6.5,9.9,13.9,9.9c6.5,0,13-1.9,17.8-4.9v13.8c-4.6,2.4-11.4,4.1-18.9,4.1
		c-15.6,0-27-11-27-27.3c0-15.3,11-27.2,26.2-27.2s24.5,11.4,24.5,24.9c0,2.2-0.4,5.2-0.8,6.8H267z M267,57.8h22.6
		c-0.2-5.4-4.7-9-10.8-9C272.5,48.7,267.8,52.8,267,57.8z"/>
	<path class="st0" d="M316.1,90.3h-16.6l17.2-26.2l-17.2-26.2h16.6l9.4,15.5l9.2-15.5h16.7l-17.1,26.2l17.1,26.2h-16.7l-9.2-15.6
		L316.1,90.3z"/>
	<path class="st0" d="M188.5,37.9l9.2,34.8l9.2-27.6l-2.5-7.1h14.2l12.2,34.8l9-34.8h14.8l-15.6,52.3h-14.9l-10.4-28.7l-9.7,28.7
		h-15l-15.5-52.3H188.5z"/>
	<path class="st0" d="M132.3,40.9c-2.8-2.1-9.9-6.8-22.1-2.7c-1.5,0.5-2.4,1.6,0.8,1.7c5.6,0.3,14,1.8,17.8,8.7
		c5.2,9.4,0.4,20-6,26.8c-2.2,2.4-4.7,4.3-6.9,5.5c-0.1,0-0.1,0.1-0.2,0.1c-5,2.7-15.5,7.2-24.9,0h-4c-0.2,0-0.5,0-0.7-0.1
		c2.4,5.2,7.9,11.1,19.8,10.2c0,0,17.5-0.1,28.6-17.7C145.7,56,135.6,43.5,132.3,40.9"/>
	<path class="st1" d="M120.3,57.7l-16.7-19.6L86.9,57.7c0,0-2.5,2.3-2.5,3.9v16.7c0,1.3,0.8,2.5,1.8,2.8c0.2,0.1,0.5,0.1,0.7,0.1h4
		h24.9c0.1,0,0.1-0.1,0.2-0.1c2.2-1.2,4.7-3.1,6.9-5.5v-14C122.8,59.9,120.3,57.7,120.3,57.7"/>
	<path class="st2" d="M78.7,56.5l22.9-26.8c0.5-0.6,1.2-0.9,1.8-1h0.3c0.7,0,1.3,0.4,1.9,1l22.9,26.8c1,1.2,1.1,3.1,0.2,4.2
		c-0.9,1.1-2.6,1-3.6-0.2l-21.5-25.2L82.1,60.5c-1.1,1.2-2.7,1.4-3.6,0.2C77.5,59.6,77.6,57.7,78.7,56.5"/>
	<path class="st2" d="M82.7,26.4c-1.4,2.4-3.1,6-1.9,9.7c1.5,4.8,6.3,6.3,7.8,6.4c-0.5-1.3-2.2-3.6-3.2-6.1
		c-2.1-5.7-0.4-10.7-0.4-11.2l0,0.3c0,0.2,0,0.6,0.1,1c0.2,2,0.7,5.8,1.8,8.9c1.1,2.9,1.8,3.4,2.6,5.9c0.4-0.5,1-1.3,1.4-2.2
		c1.3-2.3,2.2-5.9-1.3-9.9c-2.4-2.7-3.2-4.7-3.6-5.9c-0.1-0.3-0.3-0.7-0.5-0.7c-0.2,0-0.8,0.5-1.3,1.1
		C83.8,24.4,83.2,25.3,82.7,26.4"/>
	<path class="st0" d="M103.6,39.4c0,0-2.2,6-5.7,12.3c-3,5.4-7,10.7-6.7,15.5c0.6,10.7,9.1,11.6,12.9,11.6c3.7,0,12-1.9,12.1-11.4
		c0.1-5.4-3.2-9.3-6.5-15.6C107.1,47.3,104.9,42.5,103.6,39.4"/>
	<path class="st2" d="M111.3,60.4c1.3,2.7,3.7,6.5,2.1,10.4c-0.7,1.8-1.6,3.1-2.7,4.1c-1.6,1.4-3.7,1.8-5.3,1.8
		c0.6-1.4,2.1-3.2,3.2-5.4c2.9-5.8,0-12.5-0.3-12.3c0,0,0,1,0,1.4c0.1,2.2,0.3,5.4-1.7,9.6c-1.3,2.8-3.1,3.9-4,6.6
		c-2.9-0.4-4.1-1.9-4.6-2.9c-0.8-1.3-1-3.5-0.3-5.7c0.8-2.6,2.4-4.4,3.9-5.4c1.2-0.9,2.4-2,3.1-3c0.9-1.2,1.1-2.3,1.2-2.8
		c0.5-2.2,0.2-4.4,0.6-4.1c1.6,1.9,2.6,3.8,3,4.5C110.3,58.2,110.7,59.3,111.3,60.4"/>
	<g>
		<path class="st0" d="M364.1,41.1c-4.3,0-7.9-3.5-7.9-7.9c0-4.4,3.5-7.9,7.9-7.9c4.4,0,7.9,3.5,7.9,7.9
			C371.9,37.6,368.4,41.1,364.1,41.1z M364.1,26.7c-3.6,0-6.6,2.9-6.6,6.6c0,3.6,2.9,6.6,6.6,6.6c3.6,0,6.6-3,6.6-6.6
			C370.6,29.6,367.7,26.7,364.1,26.7z M366.2,37.8l-2.3-3.6h-1.4v3.6H361v-9h3.7c1.5,0,3,1.1,3,2.7c0,2-1.8,2.7-2.3,2.7l2.4,3.6
			H366.2z M364.7,29.9h-2.3V33h2.3c0.8,0,1.6-0.6,1.6-1.5C366.3,30.5,365.5,29.9,364.7,29.9z"/>
	</g>
</g>
</svg>
